<svg fill="#166534" id="Capa_1" enable-background="new 0 0 511.937 511.937" height="512" viewBox="0 0 511.937 511.937" width="512" xmlns="http://www.w3.org/2000/svg"><g><path d="m75 204.505h212.33c6.377 0 11.811 3.987 13.981 9.599 16.857-16.357 37.747-28.574 61.019-34.999v-79.944c0-8.284-6.716-15-15-15h-332.33c-8.284 0-15 6.716-15 15v180.534c0 8.284 6.716 15 15 15h36.983l49.275 53.581c2.841 3.088 6.845 4.846 11.041 4.846s8.2-1.758 11.041-4.846l49.275-53.581h87.133c3.331-22.142 11.799-42.622 24.145-60.19h-208.893c-8.284 0-15-6.716-15-15s6.716-15 15-15zm0-60h212.33c8.284 0 15 6.716 15 15s-6.716 15-15 15h-212.33c-8.284 0-15-6.716-15-15s6.716-15 15-15z"/><path d="m400.051 204.005c-61.694 0-111.886 50.191-111.886 111.885s50.191 111.886 111.886 111.886 111.886-50.192 111.886-111.886-50.192-111.885-111.886-111.885zm0 158.973c-25.964 0-47.087-21.124-47.087-47.087 0-8.284 6.716-15 15-15s15 6.716 15 15c0 9.422 7.665 17.087 17.087 17.087s17.087-7.666 17.087-17.087c0-8.284 6.716-15 15-15s15 6.716 15 15c0 25.963-21.123 47.087-47.087 47.087z"/></g></svg>