<svg fill="#166534" id="Capa_1" enable-background="new 0 0 512 512" height="512" viewBox="0 0 512 512" width="512" xmlns="http://www.w3.org/2000/svg"><g id="Orientation"><g><path d="m246.229 63.091 9.771-8.394 9.771 8.394c16.011 13.755 45.813 14.251 64.374 3.457-4.263-37.335-35.687-66.548-74.145-66.548-38.688 0-70.258 29.562-74.213 67.222 18.52 10.31 48.516 9.549 64.442-4.131z"/><path d="m301 105c-16.509 0-32.095-4.233-45-12.07-21.324 12.986-50.689 14.502-75 6.356v2.507c0 40.832 31.153 78.193 74.854 78.193 41.945-.001 75.146-33.887 75.146-74.986v-4.971c-9.373 3.241-19.587 4.971-30 4.971z"/></g><g><path d="m361 302v-77c0-24.814-20.186-45-45-45h-45v90h-30v-90h-45c-24.814 0-45 20.186-45 45l.167 77z"/><path d="m153.296 332 30.004 180h57.7v-150h30v150h57.7l29.815-180z"/></g><g><path d="m421 201.211v-51.211h-60v-90h60v-51.211l91 96.211z"/></g><g><path d="m91 201.211-91-96.211 91-96.211v51.211h60v90h-60z"/></g></g></svg>