<svg fill="#166534" id="Layer_1" enable-background="new 0 0 100 100" height="512" viewBox="0 0 100 100" width="512" xmlns="http://www.w3.org/2000/svg"><path d="m56.7 28.2c0 5.5 4.5 10 10 10s10-4.5 10-10-4.5-10-10-10-10 4.4-10 10z"/><path d="m75 41.8h-11.5c-3.8 0-6.9 3.1-6.9 6.9v29.8c0 1.8 1.5 3.3 3.3 3.3 1.8 0 3.3-1.5 3.3-3.3v-6.7c0-1.8 1.5-3.3 3.3-3.3 1.8 0 3.3 1.5 3.3 3.3v6.7c0 1.8 1.5 3.3 3.3 3.3 1.8 0 3.3-1.5 3.3-3.3v-25.5c0-.6.8-.9 1.2-.5l5.1 5.1c1.3 1.3 3.4 1.3 4.7 0 1.3-1.3 1.3-3.4 0-4.7l-9.5-9.9c-.8-.7-1.8-1.2-2.9-1.2z"/><path d="m12.4 57.5c1.3 1.3 3.4 1.3 4.7 0l2.1-2.1c.4-.4 1.1 0 1 .5l-3.3 14.8c-.1.6.3 1.1.9 1.1h4c.9 0 1.6.7 1.6 1.6v5.1c0 1.8 1.5 3.3 3.3 3.3 1.8 0 3.3-1.5 3.3-3.3v-3.3c0-1.8 1.5-3.3 3.3-3.3 1.8 0 3.3 1.5 3.3 3.3v3.3c0 1.8 1.5 3.3 3.3 3.3 1.8 0 3.3-1.5 3.3-3.3v-5.1c0-.9.7-1.6 1.6-1.6h4c.6 0 1-.5.9-1.1l-5.4-24.2c-.6-2.8-3.1-4.7-5.9-4.7h-9.6c-3.6 0-7 1.4-9.5 3.9l-7 7c-1.2 1.4-1.2 3.5.1 4.8z"/><path d="m23.3 28.2c0 5.5 4.5 10 10 10s10-4.5 10-10-4.5-10-10-10-10 4.4-10 10z"/></svg>