<svg fill="#166534" id="Layer_1" height="512" viewBox="0 0 100 100" width="512" xmlns="http://www.w3.org/2000/svg"><path d="m90 23.334v-6.667c0-3.665-3.001-6.667-6.667-6.667h-66.666c-3.669 0-6.667 3.002-6.667 6.667v6.667z"/><path d="m10 30v53.332c0 3.666 2.998 6.668 6.667 6.668h66.666c3.666 0 6.667-3.002 6.667-6.668v-53.332zm23.333 10h16.667v6.667h-16.667zm-6.666 33.332h-6.667v-6.666h6.667zm0-13.332h-6.667v-6.666h6.667zm0-13.333h-6.667v-6.667h6.667zm6.666 6.667h30v6.666h-30zm23.334 19.998h-16.667v-6.666h16.667zm23.333 0h-16.667v-6.666h16.667zm0-26.665h-23.333v-6.667h23.333z"/></svg>