<svg fill="white" clip-rule="evenodd" fill-rule="evenodd" height="512" stroke-linejoin="round" stroke-miterlimit="2" viewBox="0 0 32 32" width="512" xmlns="http://www.w3.org/2000/svg"><g id="Icon"><path d="m16 6.337c-.427-.895-.986-1.887-1.65-2.67-.782-.923-1.718-1.555-2.718-1.66-.728-.076-1.509.101-2.32.696-1.108.813-1.415 2.142-1.282 3.482.064.641.226 1.277.401 1.815h-2.431c-1.656 0-3 1.344-3 3s1.344 3 3 3v13c0 .796.316 1.559.879 2.121.562.563 1.325.879 2.121.879h14c.796 0 1.559-.316 2.121-.879.563-.562.879-1.325.879-2.121v-13c1.656 0 3-1.344 3-3s-1.344-3-3-3h-2.431c.175-.538.337-1.174.401-1.815.133-1.34-.174-2.669-1.282-3.482-.811-.595-1.592-.772-2.32-.696-1 .105-1.936.737-2.718 1.66-.664.783-1.223 1.775-1.65 2.67zm8 7.663v13c0 .265-.105.52-.293.707-.187.188-.442.293-.707.293h-14c-.265 0-.52-.105-.707-.293-.188-.187-.293-.442-.293-.707v-13zm-7.136 2.919c-.179-.307-.508-.496-.864-.496s-.685.189-.864.496l-1.057 1.815s-2.052.444-2.052.444c-.348.076-.629.33-.739.669-.11.338-.032.709.205.975l1.399 1.566s-.212 2.089-.212 2.089c-.035.354.12.7.408.909s.665.25.991.106l1.921-.846s1.921.846 1.921.846c.326.144.703.103.991-.106s.443-.555.408-.909l-.212-2.089s1.399-1.566 1.399-1.566c.237-.266.315-.637.205-.975-.11-.339-.391-.593-.739-.669l-2.052-.444s-1.057-1.815-1.057-1.815zm-2.3-8.919c-.381-.918-.977-2.14-1.739-3.04-.418-.493-.868-.908-1.402-.964-.295-.031-.6.079-.928.32-.519.38-.537 1.044-.475 1.671.077.767.334 1.524.532 2.013zm6.884 0c.198-.489.455-1.246.532-2.013.062-.627.044-1.291-.475-1.671-.328-.241-.633-.351-.928-.32-.534.056-.984.471-1.402.964-.762.9-1.358 2.122-1.739 3.04z"/></g></svg>